<?xml version="1.0" standalone="no"?>
<!DOCTYPE svg PUBLIC "-//W3C//DTD SVG 20010904//EN"
 "http://www.w3.org/TR/2001/REC-SVG-20010904/DTD/svg10.dtd">
<svg version="1.0" xmlns="http://www.w3.org/2000/svg"
 width="400.000000pt" height="400.000000pt" viewBox="0 0 400.000000 400.000000"
 preserveAspectRatio="xMidYMid meet">
<metadata>
Created by potrace 1.11, written by Peter Selinger 2001-2013
</metadata>
<g transform="translate(0.000000,400.000000) scale(0.100000,-0.100000)"
fill="#000000" stroke="none">
<path d="M0 3081 c0 -776 2 -920 14 -930 11 -10 16 -6 24 16 11 33 9 76 21
-352 10 -382 16 -476 31 -485 7 -4 9 -13 6 -19 -4 -6 -3 -11 2 -11 15 0 22 38
22 119 0 61 -2 72 -15 67 -22 -8 -18 11 6 28 21 14 22 22 26 298 2 156 6 293
9 306 4 21 9 22 98 22 66 0 96 4 99 13 4 9 8 9 15 -2 6 -8 19 -12 32 -8 16 4
20 2 16 -8 -3 -9 0 -12 8 -9 15 6 27 -217 27 -508 0 -156 6 -194 24 -150 4 9
10 160 13 334 l5 317 46 7 c25 4 51 11 58 16 7 5 22 7 34 3 14 -5 19 -4 15 4
-4 6 -2 11 3 11 6 0 11 -5 11 -11 0 -5 16 -17 34 -24 l35 -15 2 -222 c2 -296
4 -318 24 -273 10 21 14 76 15 188 l0 157 23 0 c13 0 28 5 34 11 7 7 29 9 61
4 l50 -7 2 -136 c2 -192 18 -249 19 -69 1 123 3 137 19 138 10 0 12 3 5 6 -18
7 -16 23 2 23 8 0 15 -4 15 -10 0 -5 7 -7 16 -3 26 10 34 -17 34 -126 0 -57 2
-102 4 -100 3 2 6 52 7 110 2 100 4 107 23 108 12 1 57 5 101 9 74 8 76 9 30
12 -27 2 -58 4 -68 3 -32 0 -18 23 21 33 l37 10 -42 1 c-36 0 -43 -3 -43 -18
0 -14 -7 -19 -30 -19 -37 0 -39 13 -2 27 l27 12 -34 -2 c-25 -1 -35 -7 -37
-20 -4 -27 -10 -30 -27 -12 -9 8 -24 15 -34 15 -11 1 0 11 27 26 25 14 38 23
29 21 -9 -3 -31 -2 -50 3 -19 4 92 8 255 8 159 1 287 -1 285 -3 -7 -7 -62 -13
-116 -14 -40 -1 -53 -5 -53 -16 0 -18 46 -21 53 -2 2 6 4 0 4 -15 1 -29 -7
-32 -97 -41 -19 -2 -5 -5 33 -5 61 -2 67 -4 67 -23 0 -20 -5 -20 -142 -19
-189 2 -198 1 -198 -9 0 -4 11 -6 25 -3 25 4 25 4 27 -79 1 -60 3 -69 5 -32 4
47 6 52 31 56 l27 4 -27 2 c-20 1 -26 5 -22 16 5 11 26 15 88 17 l81 2 -70 6
-70 6 64 2 c80 2 131 -14 132 -43 1 -17 2 -17 8 4 6 23 10 24 73 22 38 -1 69
2 73 8 3 6 26 11 51 11 l44 0 0 -82 c0 -57 3 -78 10 -68 5 8 10 48 10 88 l0
72 -99 0 c-56 0 -103 4 -106 10 -3 6 0 10 7 10 9 0 9 3 -2 10 -9 6 -10 10 -3
10 6 0 14 -4 18 -9 3 -6 17 -4 32 4 15 8 32 11 37 7 10 -7 53 -8 154 -3 17 0
32 5 32 10 0 5 -33 9 -72 9 -57 -1 -74 3 -76 14 -2 11 4 15 23 12 15 -1 29 -5
32 -8 3 -3 12 2 20 10 8 8 18 12 23 9 15 -9 70 -13 70 -5 0 5 11 7 25 5 18 -2
25 2 25 16 0 15 -10 19 -62 22 -35 2 46 4 179 5 l242 1 -1 -39 c0 -35 -3 -40
-24 -40 -24 0 -32 -14 -14 -25 6 -3 10 -1 10 4 0 6 6 11 14 11 12 0 14 -30 16
-162 1 -150 3 -178 14 -167 2 2 6 114 8 249 l3 245 -210 2 c-115 2 -219 4
-230 6 -11 3 98 5 243 6 261 1 264 1 330 -25 37 -14 79 -30 95 -36 25 -10 26
-12 10 -24 -12 -9 -49 -13 -111 -14 -70 0 -93 -3 -90 -12 3 -7 27 -16 53 -21
40 -7 52 -5 61 7 7 10 25 15 45 15 l34 -2 -35 -6 -35 -7 40 -5 c22 -3 42 -2
43 3 2 4 8 8 13 8 5 0 9 -77 9 -179 0 -99 4 -182 9 -185 5 -4 8 -35 6 -71 -2
-35 0 -67 6 -70 8 -5 15 82 10 122 -1 7 3 30 8 50 14 53 19 549 6 562 -7 7
-20 6 -39 -5 -24 -12 -72 -14 -263 -13 -231 2 -234 3 -232 23 3 38 -1 47 -13
39 -7 -4 -24 -9 -38 -10 l-25 -3 25 21 c22 18 20 18 -20 -4 -25 -13 -51 -23
-57 -22 -7 2 -17 3 -23 4 -5 0 -10 12 -10 25 0 22 6 25 53 31 28 4 60 11 70
17 11 5 24 5 37 -2 11 -6 20 -8 20 -5 0 3 -15 12 -32 20 l-33 14 32 1 c18 0
83 -7 145 -16 86 -12 127 -13 173 -5 71 12 157 12 150 1 -3 -5 25 -11 62 -15
38 -4 75 -9 85 -11 9 -3 19 0 23 5 3 6 -9 14 -27 19 -28 7 -17 10 65 16 71 5
102 4 113 -5 8 -6 14 -7 14 -2 0 12 7 11 147 -13 56 -9 101 -20 99 -23 -2 -3
15 -7 38 -9 69 -5 227 -39 185 -41 -28 -1 -38 -6 -42 -21 -4 -17 -14 -20 -74
-21 -47 -1 -60 -3 -43 -8 21 -7 15 -9 -30 -15 -30 -3 -75 -8 -100 -9 -39 -3
-38 -4 15 -6 44 -2 55 -5 40 -11 -17 -7 -16 -9 9 -9 16 -1 37 5 45 13 13 11
28 11 79 3 34 -6 62 -14 62 -19 0 -4 18 -8 40 -8 39 0 40 -1 40 -36 0 -26 -7
-41 -24 -55 -13 -10 -27 -30 -30 -43 -3 -14 -14 -27 -24 -29 -10 -3 -6 -5 11
-6 15 0 36 -10 47 -21 18 -18 20 -33 20 -185 0 -143 2 -165 16 -165 8 0 12 -5
9 -10 -4 -6 -11 -8 -16 -5 -16 11 -9 -7 9 -21 16 -13 16 -13 0 -14 -15 0 -18
-10 -18 -59 0 -76 9 -121 25 -121 20 0 24 22 23 112 -1 46 0 161 0 256 2 159
3 173 20 170 11 -2 18 4 20 20 2 12 8 22 13 22 5 0 9 8 9 18 0 10 7 28 16 40
8 12 15 32 14 45 -4 47 -2 50 25 33 22 -14 25 -15 26 -1 1 8 2 21 3 27 0 7 10
14 21 16 59 9 66 13 61 32 -3 11 -9 30 -12 41 -5 19 -3 21 16 16 19 -5 21 -2
16 16 -3 12 -6 30 -6 39 0 13 -14 18 -72 24 l-73 8 45 9 c25 4 55 8 67 9 19 0
20 3 10 22 -7 11 -16 24 -22 28 -5 4 13 4 40 2 28 -3 100 -9 160 -13 61 -4
102 -8 92 -9 -10 -1 -15 -6 -12 -12 4 -6 -8 -11 -27 -11 -27 -1 -28 -3 -9 -6
37 -7 152 7 146 18 -4 5 -16 9 -27 9 -12 0 -18 3 -15 7 4 3 40 6 80 6 39 0 60
2 45 4 -42 6 -34 29 15 40 l42 11 -40 1 c-48 2 -75 15 -50 25 20 7 10 26 -13
25 -14 0 -13 -2 3 -9 26 -11 2 -13 -45 -4 -23 5 -28 9 -18 16 9 7 5 8 -14 5
-15 -2 -25 0 -22 4 6 11 -29 29 -56 29 -11 0 -23 7 -26 15 -4 8 -15 15 -25 15
-10 0 -19 5 -19 11 0 8 -4 8 -14 0 -11 -9 -20 -10 -35 -1 -15 7 -21 7 -21 0 0
-6 -11 -3 -25 6 -13 9 -40 15 -60 14 -19 -1 -54 -3 -77 -4 -24 0 -46 -5 -49
-9 -3 -4 -16 -9 -27 -10 -12 -1 -22 -5 -22 -9 0 -4 -10 -4 -22 1 -13 4 -28 6
-35 4 -6 -2 -15 1 -19 8 -4 8 -3 9 4 5 19 -11 14 39 -4 55 -14 11 -18 10 -30
-5 -12 -17 -11 -21 3 -31 27 -20 2 -25 -159 -29 -84 -2 -137 -2 -118 0 30 4
99 31 163 65 10 5 21 8 25 5 5 -3 7 9 6 26 -4 60 -16 58 282 58 215 0 280 -3
306 -14 18 -8 56 -22 83 -31 141 -46 167 -53 159 -45 -5 4 -25 13 -44 19 -19
5 -71 23 -115 40 l-80 30 123 0 c164 1 160 20 -5 23 l-128 3 130 57 c72 32
124 57 116 58 -12 0 -205 -79 -243 -100 -10 -6 -26 -10 -35 -10 -16 0 -18 12
-21 95 l-4 95 156 0 c132 0 156 2 156 15 0 13 -35 15 -256 15 -256 0 -340 9
-330 35 9 24 -13 37 -69 41 -44 3 -62 9 -72 24 -8 11 -20 20 -28 20 -10 0 -7
8 9 25 23 25 43 34 31 15 -3 -5 0 -10 9 -10 8 0 21 -3 30 -6 9 -3 16 -1 16 5
0 6 -7 11 -16 11 -8 0 -13 4 -10 9 9 13 -104 25 -117 12 -6 -6 -16 -11 -21
-11 -6 0 -4 5 4 10 12 8 9 10 -11 10 -15 0 -29 -7 -33 -15 -6 -18 -30 -11 -69
22 -16 13 -33 20 -39 17 -5 -3 -12 4 -15 16 -4 13 -16 23 -34 27 -39 8 -37 41
4 56 9 3 17 13 17 20 0 15 54 67 70 67 5 0 10 5 10 10 0 6 -6 10 -14 8 -32 -7
-15 18 17 25 22 5 37 16 40 28 3 12 11 17 20 13 10 -3 20 2 26 15 8 14 26 22
61 27 27 4 51 12 54 20 3 8 15 14 26 14 26 0 77 -26 83 -42 3 -7 6 10 6 38 1
43 -2 53 -21 62 l-23 11 25 0 c32 1 50 18 50 48 0 22 3 23 43 17 90 -14 118
-37 142 -121 4 -14 14 -23 26 -23 11 0 29 -15 43 -37 13 -21 33 -47 45 -57 11
-11 21 -25 21 -33 0 -21 30 -15 50 10 18 21 19 22 33 3 8 -11 26 -19 44 -19
31 0 73 29 73 50 0 7 11 13 25 13 l25 0 0 285 0 285 -2000 0 -2000 0 0 -919z
m3205 -13 c-11 -7 -58 -13 -105 -14 l-85 -3 88 9 c49 5 91 11 95 14 3 3 10 6
16 6 6 0 2 -6 -9 -12z m-180 -38 c10 -11 23 -20 28 -20 6 0 18 -7 28 -16 10
-9 39 -22 66 -29 45 -12 37 -13 -122 -13 -93 0 -163 2 -154 5 23 6 32 55 13
70 -14 10 -13 12 3 16 10 3 41 5 69 6 39 1 55 -4 69 -19z m55 -122 c0 -3 -30
-9 -67 -13 -38 -3 -113 -17 -168 -30 -55 -14 -113 -25 -130 -24 l-30 1 30 8
30 8 -35 2 c-30 2 -31 3 -10 8 l25 5 -23 6 c-38 10 -26 26 25 32 62 9 353 6
353 -3z m520 3 c0 -5 -17 -15 -37 -21 -21 -7 -42 -16 -47 -21 -6 -5 -17 -9
-25 -9 -14 0 -14 2 -2 9 12 8 12 12 2 25 -11 13 -5 15 46 19 32 2 59 4 61 5 1
1 2 -2 2 -7z m80 -91 l0 -100 -230 0 c-126 0 -230 2 -230 3 0 2 39 21 86 42
66 29 90 36 103 28 9 -6 32 -8 51 -4 l35 6 -45 5 -45 6 30 13 c17 7 62 27 100
43 39 17 84 36 100 44 17 7 33 14 38 14 4 0 7 -45 7 -100z m-395 81 c-32 -12
-115 -13 -115 -1 0 6 27 10 68 9 42 0 60 -3 47 -8z m-629 -23 c0 -10 -4 -18
-8 -18 -4 0 -8 7 -8 15 0 9 -6 12 -17 8 -10 -4 -14 -2 -9 5 10 17 42 10 42
-10z m-49 -14 c-3 -3 -12 -4 -19 -1 -8 3 -5 6 6 6 11 1 17 -2 13 -5z m-102
-36 c-4 -10 -20 -15 -48 -15 -24 0 -31 2 -17 4 14 3 28 10 32 17 5 7 8 6 8 -4
1 -11 3 -11 11 3 12 21 22 17 14 -5z m934 9 c-2 -1 -28 -14 -57 -27 -45 -20
-55 -22 -63 -10 -15 25 -11 27 54 36 56 9 78 9 66 1z m-1039 -6 c0 -5 -7 -12
-16 -15 -14 -5 -15 -4 -4 9 14 17 20 19 20 6z m165 -1 c-3 -5 -16 -10 -28 -9
-21 0 -21 1 -2 9 28 12 37 12 30 0z m1141 -315 c6 -2 9 -17 6 -34 -4 -27 -1
-31 20 -31 13 0 33 -7 44 -15 18 -14 18 -14 -11 -16 -45 -3 -159 2 -165 8 -2
2 1 12 7 22 9 15 8 23 -4 41 -13 19 -13 24 -2 31 12 7 72 4 105 -6z m-799 -61
c-3 -3 -12 -4 -19 -1 -8 3 -5 6 6 6 11 1 17 -2 13 -5z m175 -10 c-12 -8 -37
-17 -55 -19 -26 -4 -29 -2 -14 6 10 6 21 8 24 5 3 -3 15 1 27 9 11 8 25 15 30
15 6 0 0 -7 -12 -16z m-682 -9 c10 -12 10 -15 -3 -15 -8 0 -20 7 -27 15 -10
12 -10 15 3 15 8 0 20 -7 27 -15z m483 -8 l26 -14 -38 -16 c-44 -20 -55 -21
-45 -5 4 7 3 8 -5 4 -6 -4 -9 -12 -6 -17 4 -5 1 -9 -5 -9 -17 0 -24 29 -10 45
6 7 21 16 33 18 12 2 23 5 23 6 1 0 13 -5 27 -12z m334 -14 c3 -14 1 -29 -4
-34 -12 -12 -295 -23 -325 -13 -10 3 -16 9 -13 14 6 9 73 24 97 21 10 -1 26 3
38 9 17 9 24 7 44 -14 20 -19 26 -21 30 -9 3 8 10 12 15 9 5 -3 11 1 15 9 3 9
0 15 -9 15 -8 0 -15 -4 -15 -10 0 -5 -8 -6 -17 -3 -24 9 39 28 97 29 35 1 41
-3 47 -23z m-688 1 c9 -8 -45 -2 -64 6 -14 7 -8 8 20 3 22 -3 42 -7 44 -9z
m171 6 c-8 -5 -22 -9 -30 -9 -10 0 -8 3 5 9 27 12 43 12 25 0z m-83 -6 c-3 -3
-12 -4 -19 -1 -8 3 -5 6 6 6 11 1 17 -2 13 -5z m162 -35 c1 -10 -35 -18 -46
-10 -5 3 -12 14 -16 23 -4 13 1 18 21 20 24 3 39 -9 41 -33z m788 35 c-3 -3
-12 -4 -19 -1 -8 3 -5 6 6 6 11 1 17 -2 13 -5z m218 -12 l-30 -4 30 -13 c27
-12 20 -13 -83 -14 -68 -1 -122 4 -135 11 -21 11 -21 11 -2 18 11 4 72 7 135
6 63 0 102 -2 85 -4z m-1448 -14 c12 1 25 -3 29 -10 5 -8 -5 -9 -35 -4 -25 4
-40 3 -37 -3 3 -5 -2 -7 -12 -4 -10 2 -19 11 -19 19 0 12 7 14 26 8 14 -4 36
-6 48 -6z m318 2 c3 -5 4 -10 1 -10 -2 0 -13 -3 -23 -6 -15 -5 -16 -4 -3 6 12
9 7 10 -25 5 -29 -4 -36 -3 -25 4 19 14 67 14 75 1z m-248 -6 c-3 -3 -12 -4
-19 -1 -8 3 -5 6 6 6 11 1 17 -2 13 -5z m293 2 c0 -2 -7 -7 -16 -10 -8 -3 -12
-2 -9 4 6 10 25 14 25 6z m-745 -16 c-27 -12 -43 -12 -25 0 8 5 22 9 30 9 10
0 8 -3 -5 -9z m1493 3 c-10 -2 -26 -2 -35 0 -10 3 -2 5 17 5 19 0 27 -2 18 -5z
m-243 -43 c-3 -5 -2 -10 3 -10 12 0 23 -38 12 -45 -7 -4 -45 3 -255 49 -60 14
-59 14 93 15 100 1 151 -2 147 -9z m-1507 -40 c21 0 32 -4 27 -9 -12 -10 -193
-36 -200 -29 -3 3 -3 12 0 20 6 14 54 16 107 4 10 -2 17 -1 16 3 0 3 1 13 2
21 1 11 3 11 7 3 2 -7 21 -13 41 -13z m1639 4 c-3 -3 -12 -4 -19 -1 -8 3 -5 6
6 6 11 1 17 -2 13 -5z m-1852 -34 c4 -6 -6 -10 -22 -10 -22 0 -25 2 -13 10 19
12 27 12 35 0z m423 -31 c-17 -11 -55 -11 -62 -1 -3 5 9 6 26 4 21 -3 29 -1
24 7 -5 7 -1 9 9 4 13 -5 14 -7 3 -14z m1322 -9 c0 -16 -7 -20 -35 -20 -28 0
-35 4 -35 20 0 16 7 20 35 20 28 0 35 -4 35 -20z m-1400 1 c0 -5 10 -11 23
-14 12 -2 2 -4 -23 -4 -25 1 -37 2 -27 5 9 2 15 8 12 13 -4 5 -1 9 4 9 6 0 11
-4 11 -9z m90 -11 c0 -5 -7 -10 -16 -10 -8 0 -12 5 -9 10 3 6 10 10 16 10 5 0
9 -4 9 -10z m-373 -6 c-3 -3 -12 -4 -19 -1 -8 3 -5 6 6 6 11 1 17 -2 13 -5z
m146 -1 c-7 -2 -21 -2 -30 0 -10 3 -4 5 12 5 17 0 24 -2 18 -5z m1447 -18 c0
-17 -4 -18 -49 -9 -44 9 -39 24 9 24 29 0 40 -4 40 -15z m-2713 -27 c-3 -7 -5
-2 -5 12 0 14 2 19 5 13 2 -7 2 -19 0 -25z m218 22 c-3 -5 -14 -10 -23 -9 -14
0 -13 2 3 9 27 11 27 11 20 0z m2585 -10 c0 -16 -7 -20 -35 -20 -28 0 -35 4
-35 20 0 16 7 20 35 20 28 0 35 -4 35 -20z m76 -24 c-10 -39 -23 -31 -18 10 3
24 8 32 14 26 6 -6 8 -22 4 -36z m-2758 27 c-10 -2 -28 -2 -40 0 -13 2 -5 4
17 4 22 1 32 -1 23 -4z m541 -15 c-1 -17 -3 -18 -6 -6 -3 13 -18 18 -61 21
l-57 3 63 2 c59 2 62 1 61 -20z m211 8 c0 -19 -20 -25 -45 -14 -18 8 -18 8 2
4 13 -2 25 0 28 4 3 5 -20 11 -52 13 l-58 3 63 2 c47 2 62 -1 62 -12z m840 10
c0 -9 -39 -13 -51 -5 -10 6 -4 9 19 9 17 0 32 -2 32 -4z m62 -26 l-4 -30 -86
0 c-47 0 -83 2 -80 5 4 4 144 49 169 54 3 0 4 -12 1 -29z m147 26 c-2 -2 -30
-13 -61 -24 l-58 -20 0 24 c0 23 3 24 62 24 34 0 59 -2 57 -4z m71 -26 l0 -30
-87 1 -88 0 75 28 c97 37 100 37 100 1z m-1505 10 c3 -5 -3 -10 -14 -10 -12 0
-21 5 -21 10 0 6 6 10 14 10 8 0 18 -4 21 -10z m452 -11 c1 -12 -4 -15 -20
-11 -13 3 -16 7 -8 10 11 4 11 6 0 13 -10 6 -8 8 7 7 11 -1 21 -10 21 -19z
m487 13 c3 -5 -9 -9 -27 -9 -26 -1 -28 1 -12 7 27 11 33 12 39 2z m-904 -17
c0 -8 -4 -15 -10 -15 -5 0 -7 7 -4 15 4 8 8 15 10 15 2 0 4 -7 4 -15z m260 -2
c48 -9 33 -14 -33 -11 -37 2 -67 4 -67 6 0 8 47 20 60 15 8 -2 26 -7 40 -10z
m196 -10 c-7 -7 -26 7 -26 19 0 6 6 6 15 -2 9 -7 13 -15 11 -17z m97 20 c-7
-2 -19 -2 -25 0 -7 3 -2 5 12 5 14 0 19 -2 13 -5z m464 1 c-3 -3 -12 -4 -19
-1 -8 3 -5 6 6 6 11 1 17 -2 13 -5z m-1257 -14 c8 -5 12 -11 9 -14 -3 -3 -14
1 -25 9 -21 16 -8 20 16 5z m115 -12 c-9 -5 -24 -7 -33 -3 -15 6 -15 8 3 15
28 10 53 0 30 -12z m170 12 c3 -5 1 -10 -4 -10 -6 0 -11 5 -11 10 0 6 2 10 4
10 3 0 8 -4 11 -10z m900 1 c-3 -5 3 -12 12 -14 10 -3 -4 -5 -31 -6 -60 -1
-47 19 17 28 5 0 6 -3 2 -8z m-448 -7 c-3 -3 -12 -4 -19 -1 -8 3 -5 6 6 6 11
1 17 -2 13 -5z m-616 -33 c-8 -5 -21 -7 -29 -3 -10 3 -13 1 -8 -6 4 -7 5 -12
2 -12 -2 0 -11 -3 -19 -6 -12 -4 -14 0 -10 15 4 16 13 21 42 21 25 0 32 -3 22
-9z m98 -41 l2 -50 -61 0 c-33 0 -60 4 -60 10 0 6 -9 10 -20 10 -22 0 -27 15
-7 24 6 3 30 17 52 30 22 14 52 25 66 25 24 1 26 -2 28 -49z m104 43 c-13 -2
-33 -2 -45 0 -13 2 -3 4 22 4 25 0 35 -2 23 -4z m54 1 c-3 -3 -12 -4 -19 -1
-8 3 -5 6 6 6 11 1 17 -2 13 -5z m121 -1 c-15 -2 -42 -2 -60 0 -18 2 -6 4 27
4 33 0 48 -2 33 -4z m79 1 c-3 -3 -12 -4 -19 -1 -8 3 -5 6 6 6 11 1 17 -2 13
-5z m86 -1 c-7 -2 -19 -2 -25 0 -7 3 -2 5 12 5 14 0 19 -2 13 -5z m155 0 c-10
-2 -28 -2 -40 0 -13 2 -5 4 17 4 22 1 32 -1 23 -4z m79 1 c-3 -3 -12 -4 -19
-1 -8 3 -5 6 6 6 11 1 17 -2 13 -5z m813 -24 c0 -16 -2 -30 -4 -30 -2 0 -35
13 -73 30 l-68 29 73 1 72 0 0 -30z m-1340 -19 c0 -13 -10 -20 -31 -25 -71
-14 -117 0 -90 27 8 8 18 7 38 -3 16 -8 31 -16 36 -18 4 -2 7 1 7 6 0 5 -10
14 -22 20 -21 9 -18 11 20 11 35 1 42 -2 42 -18z m65 -2 c25 -12 45 -23 45
-25 0 -2 -22 -4 -50 -4 -47 0 -50 2 -50 25 0 30 -1 30 55 4z m85 -5 l0 -26
-32 20 c-18 11 -40 22 -48 25 -8 3 6 6 33 6 44 1 47 -1 47 -25z m205 6 c55
-24 61 -24 68 -7 4 10 -3 13 -24 12 -15 -1 -26 2 -23 7 3 4 20 8 38 8 27 0 32
-4 32 -24 0 -23 -3 -24 -78 -25 -53 -1 -85 3 -100 13 -13 7 -34 17 -48 20 -14
3 -8 -2 15 -14 l40 -19 -57 -1 c-51 0 -58 2 -58 19 0 22 18 28 97 30 32 0 69
-7 98 -19z m181 5 c-35 -18 -36 -18 -36 0 0 10 10 15 33 15 l32 0 -29 -15z
m355 -2 c1 -17 2 -17 6 0 4 14 16 17 79 17 72 0 74 -1 74 -25 l0 -24 -220 -1
-220 0 -1 22 c-1 22 -1 22 -7 2 -6 -16 -16 -20 -54 -21 -42 0 -46 2 -30 13 22
17 35 18 26 2 -5 -7 5 -3 20 10 27 20 39 22 177 22 135 0 149 -2 150 -17z
m-1171 -53 c0 -5 -9 -10 -21 -10 -11 0 -17 5 -14 10 3 6 13 10 21 10 8 0 14
-4 14 -10z m833 3 c-7 -2 -19 -2 -25 0 -7 3 -2 5 12 5 14 0 19 -2 13 -5z m787
-3 c0 -5 -4 -10 -10 -10 -5 0 -10 5 -10 10 0 6 5 10 10 10 6 0 10 -4 10 -10z
m-1542 -17 c-10 -2 -28 -2 -40 0 -13 2 -5 4 17 4 22 1 32 -1 23 -4z m105 0
c-7 -2 -19 -2 -25 0 -7 3 -2 5 12 5 14 0 19 -2 13 -5z m680 0 c-7 -2 -21 -2
-30 0 -10 3 -4 5 12 5 17 0 24 -2 18 -5z m90 0 c-7 -2 -21 -2 -30 0 -10 3 -4
5 12 5 17 0 24 -2 18 -5z m510 0 c-13 -2 -33 -2 -45 0 -13 2 -3 4 22 4 25 0
35 -2 23 -4z m-736 -9 c-3 -3 -12 -4 -19 -1 -8 3 -5 6 6 6 11 1 17 -2 13 -5z
m-734 -11 c-7 -2 -19 -2 -25 0 -7 3 -2 5 12 5 14 0 19 -2 13 -5z m730 -11 c4
8 6 7 6 -4 1 -18 -9 -21 -59 -20 -43 0 -50 2 -50 11 0 14 43 21 57 9 11 -9 12
-7 7 8 -7 18 -7 18 13 1 16 -14 22 -15 26 -5z m-540 -19 c-7 -2 -19 -2 -25 0
-7 3 -2 5 12 5 14 0 19 -2 13 -5z"/>
<path d="M3455 2760 c3 -5 14 -10 24 -10 9 0 23 -6 30 -12 10 -11 11 -10 6 5
-4 9 -10 17 -14 18 -3 0 -16 2 -29 5 -14 2 -21 0 -17 -6z"/>
<path d="M1376 2055 c4 -8 10 -15 15 -15 4 0 6 7 3 15 -4 8 -10 15 -15 15 -4
0 -6 -7 -3 -15z"/>
<path d="M1870 2050 c-8 -5 -10 -10 -5 -10 6 0 17 5 25 10 8 5 11 10 5 10 -5
0 -17 -5 -25 -10z"/>
<path d="M3135 3390 c4 -6 11 -8 16 -5 14 9 11 15 -7 15 -8 0 -12 -5 -9 -10z"/>
<path d="M3140 3180 c-12 -8 -11 -10 8 -10 12 0 22 5 22 10 0 13 -11 13 -30 0z"/>
<path d="M3090 3156 c0 -2 9 -6 20 -9 11 -3 20 -1 20 4 0 5 -9 9 -20 9 -11 0
-20 -2 -20 -4z"/>
<path d="M3323 3053 c9 -2 23 -2 30 0 6 3 -1 5 -18 5 -16 0 -22 -2 -12 -5z"/>
<path d="M3431 3004 c0 -11 3 -14 6 -6 3 7 2 16 -1 19 -3 4 -6 -2 -5 -13z"/>
<path d="M3385 2600 c3 -5 8 -10 11 -10 2 0 4 5 4 10 0 6 -5 10 -11 10 -5 0
-7 -4 -4 -10z"/>
<path d="M2047 2309 c7 -7 15 -10 18 -7 3 3 -2 9 -12 12 -14 6 -15 5 -6 -5z"/>
<path d="M2160 2270 c-11 -7 -6 -9 18 -6 18 2 36 6 39 10 10 10 -41 7 -57 -4z"/>
<path d="M1947 2263 c-3 -7 -2 -19 2 -39 0 -3 9 2 19 13 9 10 13 14 9 7 -4 -7
-4 -15 1 -18 6 -3 12 1 16 9 3 8 11 15 17 15 9 0 8 -4 0 -14 -10 -12 -8 -13 8
-9 30 8 26 19 -10 32 -37 13 -56 14 -62 4z"/>
<path d="M2075 2251 c2 -9 4 -18 4 -21 2 -6 21 23 21 31 0 3 -6 6 -14 6 -7 0
-12 -7 -11 -16z"/>
<path d="M2125 2240 c-3 -5 -2 -10 4 -10 5 0 13 5 16 10 3 6 2 10 -4 10 -5 0
-13 -4 -16 -10z"/>
<path d="M2965 2200 c-16 -7 -17 -9 -3 -9 9 -1 20 4 23 9 7 11 7 11 -20 0z"/>
<path d="M3056 2061 c-9 -15 45 -21 89 -11 l40 9 -48 -3 c-26 -2 -50 0 -53 5
-7 12 -21 11 -28 0z"/>
<path d="M1210 1969 c0 -5 5 -7 10 -4 6 3 10 8 10 11 0 2 -4 4 -10 4 -5 0 -10
-5 -10 -11z"/>
<path d="M1268 1973 c7 -3 16 -2 19 1 4 3 -2 6 -13 5 -11 0 -14 -3 -6 -6z"/>
<path d="M1300 1970 c0 -5 5 -10 10 -10 6 0 10 5 10 10 0 6 -4 10 -10 10 -5 0
-10 -4 -10 -10z"/>
<path d="M1846 1818 c3 -89 7 -164 9 -167 3 -2 5 71 5 162 0 92 -4 167 -9 167
-5 0 -7 -70 -5 -162z"/>
<path d="M2098 1953 c7 -3 16 -2 19 1 4 3 -2 6 -13 5 -11 0 -14 -3 -6 -6z"/>
<path d="M1949 1927 c13 -13 66 -14 68 -2 2 6 -15 10 -37 10 -21 0 -35 -4 -31
-8z"/>
<path d="M1725 1920 c28 -12 37 -12 30 0 -3 6 -16 10 -28 9 -21 0 -21 -1 -2
-9z"/>
<path d="M1821 1874 c0 -11 3 -14 6 -6 3 7 2 16 -1 19 -3 4 -6 -2 -5 -13z"/>
<path d="M1765 1870 c-3 -5 -1 -10 4 -10 6 0 11 5 11 10 0 6 -2 10 -4 10 -3 0
-8 -4 -11 -10z"/>
<path d="M1548 1853 c6 -2 18 -2 25 0 6 3 1 5 -13 5 -14 0 -19 -2 -12 -5z"/>
<path d="M731 1564 c0 -11 3 -14 6 -6 3 7 2 16 -1 19 -3 4 -6 -2 -5 -13z"/>
<path d="M3246 1305 c-3 -9 0 -15 9 -15 8 0 15 7 15 15 0 8 -4 15 -9 15 -5 0
-11 -7 -15 -15z"/>
<path d="M3281 1124 c0 -11 3 -14 6 -6 3 7 2 16 -1 19 -3 4 -6 -2 -5 -13z"/>
<path d="M3563 1065 c-41 -18 -42 -31 -2 -39 43 -8 184 -8 175 1 -4 4 -41 6
-84 5 -88 -3 -120 9 -75 26 15 6 39 13 53 15 22 4 21 4 -5 5 -16 1 -45 -5 -62
-13z"/>
<path d="M3948 1073 c7 -3 16 -2 19 1 4 3 -2 6 -13 5 -11 0 -14 -3 -6 -6z"/>
<path d="M3903 1023 c15 -2 39 -2 55 0 15 2 2 4 -28 4 -30 0 -43 -2 -27 -4z"/>
<path d="M3190 920 c0 -5 5 -10 11 -10 5 0 7 5 4 10 -3 6 -8 10 -11 10 -2 0
-4 -4 -4 -10z"/>
<path d="M3253 913 c9 -2 23 -2 30 0 6 3 -1 5 -18 5 -16 0 -22 -2 -12 -5z"/>
<path d="M3708 733 c-10 -2 -18 -9 -18 -14 0 -12 10 -11 40 6 24 14 14 18 -22
8z"/>
<path d="M3578 723 c6 -2 18 -2 25 0 6 3 1 5 -13 5 -14 0 -19 -2 -12 -5z"/>
<path d="M2880 627 c8 -8 26 -18 40 -22 32 -9 25 -3 -20 19 -25 12 -31 13 -20
3z"/>
<path d="M3461 594 c12 -15 54 -20 45 -5 -3 5 -17 11 -31 13 -20 4 -23 3 -14
-8z"/>
<path d="M3568 523 c-73 -2 -118 -8 -118 -14 0 -6 9 -8 20 -4 12 4 20 2 20 -5
0 -9 10 -10 33 -5 17 4 62 9 100 12 37 2 67 9 67 14 0 5 -1 8 -2 7 -2 -1 -56
-4 -120 -5z"/>
<path d="M3500 420 c36 -11 52 -11 45 0 -3 6 -21 10 -38 9 -31 -1 -31 -1 -7
-9z"/>
<path d="M3396 406 c7 -19 -7 -21 -24 -4 -9 9 -12 9 -12 -3 0 -14 -58 -34
-127 -43 -18 -2 -48 -13 -66 -25 l-34 -21 -1567 0 -1566 0 0 -155 0 -155 2000
0 2000 0 0 155 0 155 -294 0 c-201 0 -297 3 -302 11 -3 6 1 10 12 9 11 -1 37
-2 58 -1 37 1 38 2 20 15 -18 14 -18 15 6 24 l24 9 -23 12 c-13 7 -34 11 -47
8 -13 -2 -22 1 -21 7 1 6 -8 12 -20 14 -17 3 -21 0 -17 -12z m-61 -86 c3 -5
-1 -10 -9 -10 -9 0 -16 5 -16 10 0 6 4 10 9 10 6 0 13 -4 16 -10z"/>
<path d="M3698 403 c6 -2 18 -2 25 0 6 3 1 5 -13 5 -14 0 -19 -2 -12 -5z"/>
<path d="M3558 383 c7 -3 16 -2 19 1 4 3 -2 6 -13 5 -11 0 -14 -3 -6 -6z"/>
</g>
</svg>
